<mxfile host="app.diagrams.net" modified="2023-11-23T15:37:28.822Z" agent="Mozilla/5.0 (Windows NT 10.0; Win64; x64) AppleWebKit/537.36 (KHTML, like Gecko) Chrome/119.0.0.0 Safari/537.36" version="22.0.0" etag="9VRtDnpMPbjdxl6ufI-4" type="github">
  <diagram name="Page-1" id="8CDiVRieyOjjSgWVRfxO">
    <mxGraphModel>
      <root>
        <mxCell id="0" />
        <mxCell id="1" parent="0" />
      </root>
    </mxGraphModel>
  </diagram>
</mxfile>
